<svg width="41" height="36" viewBox="0 0 41 36" fill="none" xmlns="http://www.w3.org/2000/svg">
<path d="M0.100893 32.9626C0.40749 33.8586 1.05613 34.5969 1.9052 35.0163C2.3018 35.2096 2.73728 35.31 3.17849 35.3097H4.53685L29.3102 35.5209L31.3169 28.5619L14.0425 28.4328C11.4783 28.4034 10.1552 25.5664 11.8832 23.8032L19.5757 15.9464C21.336 14.1362 19.9072 11.2346 17.2785 11.3197L5.08842 11.7158C4.40617 11.7193 3.74704 11.9634 3.22703 12.4051C2.70702 12.8467 2.35946 13.4576 2.24553 14.1303L0.139035 29.5066L0.0334164 30.4894C0.0128795 30.7505 -0.00472368 31.1114 0.001144 31.5338C0.001144 32.2526 -0.0135263 32.6164 0.100893 32.9626Z" fill="#10BD87"/>
<path d="M40.5878 3.03731C40.2812 2.14132 39.6326 1.40302 38.7835 0.983624C38.3869 0.790293 37.9515 0.689955 37.5102 0.690241H36.1519L11.3786 0.479004L9.38354 7.43807L26.658 7.56716C29.2221 7.5965 30.5453 10.4335 28.8173 12.1967L21.1248 20.0536C19.3645 21.8637 20.7932 24.7653 23.422 24.6802L35.615 24.2871C36.2972 24.2836 36.9564 24.0395 37.4764 23.5978C37.9964 23.1562 38.3439 22.5452 38.4579 21.8726L40.5644 6.49631L40.67 5.51347C40.6905 5.25236 40.7081 4.8915 40.7023 4.46903C40.6964 3.7473 40.714 3.3835 40.5878 3.03731Z" fill="#10BD87"/>
</svg>
