<svg width="88" height="81" viewBox="0 0 88 81" fill="none" xmlns="http://www.w3.org/2000/svg">
<path d="M52.3142 0.000223756C33.193 0.000223756 17.6378 15.5554 17.6378 34.6951C17.6378 34.9721 17.6378 35.2499 17.6567 35.4339C17.6567 35.8408 17.6757 36.2656 17.6937 36.6535L36.0201 42.0667C37.6646 42.5656 38.8102 43.9692 38.9762 45.6325C39.1981 47.2211 38.3294 48.9025 36.8329 49.7154L31.4197 52.6526C39.9867 64.4371 54.6628 69.1812 68.2022 65.2888C68.2392 65.2699 68.2762 65.2699 68.3131 65.2699C68.849 65.0669 69.3659 64.827 69.8837 64.5861C69.9387 64.5491 69.9946 64.5311 70.0316 64.4941C80.5063 58.25 87.0096 46.8326 87.0096 34.6949C87.0096 15.5557 71.4543 0 52.3146 0L52.3142 0.000223756ZM52.2962 33.3096C57.4505 33.3096 61.6253 37.4852 61.6253 42.6026C61.6253 47.2771 58.1703 51.1561 53.6818 51.8209V55.0539C53.6818 55.8297 53.072 56.4395 52.2962 56.4395C51.5384 56.4395 50.9106 55.8297 50.9106 55.0539V51.8209C46.44 51.1561 43.004 47.2582 43.004 42.6026C43.004 41.8449 43.6319 41.2171 44.3896 41.2171C45.1654 41.2171 45.7752 41.8449 45.7752 42.6026C45.7752 46.2236 48.7124 49.1606 52.2962 49.1606C55.9172 49.1606 58.8541 46.2234 58.8541 42.6026C58.8541 39.0186 55.9169 36.0807 52.2962 36.0807C47.1788 36.0807 43.004 31.906 43.004 26.7696C43.004 22.1141 46.44 18.2532 50.9106 17.5883V14.3364C50.9106 13.5786 51.5384 12.9508 52.2962 12.9508C53.072 12.9508 53.6818 13.5786 53.6818 14.3364V17.5883C58.1713 18.2531 61.6253 22.0961 61.6253 26.7696C61.6253 27.5273 61.0155 28.1552 60.2397 28.1552C59.482 28.1552 58.8541 27.5273 58.8541 26.7696C58.8541 23.1667 55.9169 20.2486 52.2962 20.2486C48.7121 20.2486 45.7752 23.1678 45.7752 26.7696C45.7752 30.3714 48.7124 33.3096 52.2962 33.3096Z" fill="white"/>
<path d="M68.9596 67.949C52.9054 72.5307 36.0567 65.8427 27.4477 51.6548L35.5212 47.2582C36.0011 46.9993 36.297 46.4454 36.223 45.8915C36.168 45.3367 35.7801 44.8749 35.2443 44.7089L9.38013 37.0972C9.02923 37.0043 8.64134 37.0413 8.32741 37.2082C7.99455 37.3931 7.77355 37.689 7.66259 38.0399L0.0698401 63.904C-0.0961408 64.4399 0.0878815 65.0307 0.5317 65.3816C0.974624 65.7325 1.56638 65.7884 2.06522 65.5106L10.1937 61.077C17.5645 73.3073 30.7005 80.1982 44.2051 80.1982C50.5972 80.1982 57.0633 78.6647 63.0494 75.3946C65.7097 73.9351 68.1299 72.2355 70.2731 70.3142C70.735 69.8893 70.864 69.1686 70.5501 68.6147C70.2343 68.041 69.5695 67.764 68.9597 67.9489L68.9596 67.949Z" fill="#10BD87"/>
</svg>
