<svg width="41" height="40" viewBox="0 0 41 40" fill="none" xmlns="http://www.w3.org/2000/svg">
<path d="M19.8992 0H21.1008C26.0103 0 30.6615 2.08656 35.0543 6.25969C38.1421 10.0065 39.8411 13.3979 40.1512 16.4341C40.3837 17.8682 40.5 18.7791 40.5 19.1667V20.814C40.5 23.4755 39.5956 26.5568 37.7868 30.0581C35.1512 34.3734 31.3979 37.3708 26.5271 39.0504C24.0594 39.6835 22.1279 40 20.7326 40H20.2674C15.1641 40 10.4289 37.9457 6.06202 33.8372C2.35401 29.7287 0.5 24.9548 0.5 19.5155V19.2829C0.5 19.1021 0.53876 18.947 0.616279 18.8178C0.616279 18.7274 0.577519 18.6822 0.5 18.6822C1.00388 14.832 2.03101 11.7183 3.5814 9.34109C6.03618 5.34884 9.8217 2.50646 14.938 0.813953C16.8501 0.271318 18.5039 0 19.8992 0ZM17.186 12.7713L17.3023 16.4341C17.3023 16.5504 17.186 16.6731 16.9535 16.8023H14.938V20.9302H16.9535C17.0698 20.9302 17.186 21.053 17.3023 21.2984V31.4729L17.3605 32.1899H21.5659V21.1822C21.5917 21.0142 21.6693 20.9302 21.7984 20.9302H25.2287C25.3837 20.9302 25.584 19.6318 25.8295 17.0349V16.8023H21.7984C21.6434 16.8023 21.5659 16.7248 21.5659 16.5698V13.7209C21.5659 12.5065 22.2765 11.8346 23.6977 11.7054H26.062V8.15891C26.062 7.92636 25.2351 7.81008 23.5814 7.81008H22.9806C20.2545 7.81008 18.478 8.83075 17.6512 10.8721C17.4961 11.2984 17.3411 11.9315 17.186 12.7713Z" fill="#1E1E1E"/>
</svg>
