<svg width="41" height="40" viewBox="0 0 41 40" fill="none" xmlns="http://www.w3.org/2000/svg">
<path d="M19.0749 0H21.9251C24.9757 0 28.4464 1.26398 32.3371 3.79193C35.2714 6.08653 37.3977 8.73764 38.7162 11.7453C39.9054 14.6103 40.5 17.028 40.5 18.9985V20.6514C40.5 25.0851 38.6839 29.4798 35.0516 33.8357C30.8377 37.9452 25.9451 40 20.374 40C13.4197 40 7.73865 36.7526 3.33083 30.2577C1.44361 26.7574 0.5 23.3155 0.5 19.9319C0.5 14.3575 2.78793 9.33398 7.36379 4.86145C11.6294 1.62048 15.5331 0 19.0749 0ZM9.84561 17.3262V23.51C9.84561 26.8806 10.912 29.1298 13.0448 30.2577C14.0014 30.8021 17.0778 31.0031 22.2741 30.8605C26.2554 30.8605 28.5433 30.4262 29.1379 29.5576C30.4822 28.4816 31.1544 26.6991 31.1544 24.21V16.2567C31.1544 13.1194 30.0492 11.0647 27.8388 10.0924L26.3652 9.60622L24.8723 9.48955H16.2441C13.1676 9.48955 11.1124 10.9934 10.0783 14.001C9.92317 14.9214 9.84561 16.0298 9.84561 17.3262ZM16.5931 11.3952H24.8723C27.8711 11.3952 29.3706 12.9768 29.3706 16.14V24.56C28.9699 27.4899 27.7483 28.9548 25.706 28.9548H22.2741C20.6713 28.9548 18.9779 28.9937 17.1941 29.0715C14.2211 29.0715 12.4825 28.1251 11.9784 26.2324C11.8233 25.1823 11.7458 23.6007 11.7458 21.4876V18.8624C11.7458 14.9084 12.0624 12.9315 12.6958 12.9315C13.3292 11.9073 14.6283 11.3952 16.5931 11.3952ZM24.9886 14.6038C25.3376 15.3946 25.7771 15.79 26.3071 15.79C26.837 15.79 27.2701 15.3946 27.6062 14.6038C27.4252 13.6445 26.9469 13.1648 26.1714 13.1648C25.3829 13.4111 24.9886 13.8908 24.9886 14.6038ZM15.0613 20.3014C15.0613 22.8553 16.522 24.6313 19.4433 25.6296H21.8088C24.6396 24.6054 26.055 22.7905 26.055 20.1847V19.9319C26.055 18.4541 25.3053 17.0734 23.8059 15.79C22.7847 15.077 21.7248 14.7205 20.626 14.7205H20.5097C18.0667 14.7205 16.3669 15.9844 15.4103 18.5124C15.2811 18.6809 15.1647 19.2773 15.0613 20.3014ZM20.5097 16.6067H20.626C22.3323 16.6067 23.4762 17.5207 24.0579 19.3486C24.1355 19.4523 24.1743 19.731 24.1743 20.1847C23.7994 22.6349 22.6167 23.86 20.626 23.86C19.049 23.86 17.9051 23.0692 17.1941 21.4876C17.0907 21.358 17.0067 20.9626 16.9421 20.3014C17.2264 17.8383 18.4157 16.6067 20.5097 16.6067Z" fill="#1E1E1E"/>
</svg>
