<svg width="41" height="40" viewBox="0 0 41 40" fill="none" xmlns="http://www.w3.org/2000/svg">
<path d="M20.0898 0H21.0273C25.2331 0 29.4323 1.61557 33.625 4.84671C36.737 7.96107 38.638 10.764 39.3281 13.2555C39.7969 14.2936 40.1094 15.4809 40.2656 16.8175C40.4219 18.1411 40.5 19.0041 40.5 19.4063V20.4574V21.2944C40.1875 24.1622 39.556 26.5693 38.6055 28.5158C36.5091 32.7461 33.306 35.9384 28.9961 38.0925C25.9102 39.3642 23.1367 40 20.6758 40H20.4414C15.4674 40 10.9167 38.1833 6.78906 34.5499C4.19792 31.8637 2.57682 29.4955 1.92578 27.4453C1.20964 25.8491 0.734375 23.8378 0.5 21.4112V18.9197C0.5 14.8451 2.19922 10.7056 5.59766 6.50122C10.0508 2.16707 14.8815 0 20.0898 0ZM12.4922 12.7689V13.4891C12.7135 14.6699 13.4622 15.2603 14.7383 15.2603C15.7799 15.2603 16.4961 14.6699 16.8867 13.4891V13.3723C16.8867 12.1525 16.1315 11.4388 14.6211 11.2311C13.6966 11.2311 12.987 11.7437 12.4922 12.7689ZM22.707 17.9854H22.4531V16.7981H18.6641V28.0487C18.6901 28.2044 18.7682 28.2822 18.8984 28.2822H22.2188C22.375 28.2822 22.4531 28.2044 22.4531 28.0487V22.0146C22.6484 20.3536 23.3255 19.5231 24.4844 19.5231C25.8255 19.5231 26.4961 20.3536 26.4961 22.0146V28.0487C26.5221 28.2044 26.6003 28.2822 26.7305 28.2822H30.3047V20.8272C30.3047 19.4907 29.6667 18.2644 28.3906 17.1484C27.4271 16.7591 26.8346 16.5645 26.6133 16.5645H25.4219C24.4974 16.6034 23.5924 17.077 22.707 17.9854ZM12.7266 17.0316V28.0487C12.7526 28.2044 12.8307 28.2822 12.9609 28.2822H16.2812C16.4375 28.2822 16.5156 28.2044 16.5156 28.0487V17.2652L16.2812 16.7981H12.9609C12.8047 16.824 12.7266 16.9019 12.7266 17.0316Z" fill="#1E1E1E"/>
</svg>
