<svg width="89" height="77" viewBox="0 0 89 77" fill="none" xmlns="http://www.w3.org/2000/svg">
<path d="M39.771 57.5037C39.2852 55.7636 38.2418 54.2309 36.8002 53.1419C35.3593 52.0521 33.6001 51.466 31.7938 51.4731H12.2185C10.4122 51.466 8.65291 52.0521 7.21211 53.1419C5.77054 54.2309 4.72708 55.7636 4.24134 57.5037L0.699314 70.443C0.265559 71.9993 0.584644 73.6694 1.56185 74.9565C2.53905 76.2435 4.0611 76.9992 5.67713 76.9999H38.335C39.9511 76.9992 41.4739 76.2435 42.4503 74.9565C43.4275 73.6695 43.7466 71.9992 43.3128 70.443L39.771 57.5037ZM9.17165 60.9018C9.51637 59.6646 10.2564 58.5734 11.2793 57.7958C12.3013 57.018 13.5506 56.5964 14.8355 56.5942H16.9737H16.973C17.968 56.5892 18.9089 57.0486 19.5164 57.8371C20.1239 58.6248 20.3291 59.6512 20.0712 60.612C19.8134 61.5728 19.1218 62.3591 18.2016 62.7366L13.4153 64.6989V64.6996C12.8633 64.9282 12.2579 64.9966 11.6682 64.8983C11.0784 64.7993 10.5286 64.5372 10.0813 64.1412C9.22378 63.3192 8.86053 62.1078 9.12406 60.9503L9.17165 60.9018Z" fill="white"/>
<path d="M84.6015 57.5037C84.1158 55.7636 83.0724 54.2309 81.6308 53.1419C80.1899 52.0521 78.4306 51.466 76.6244 51.4731H57.1129C55.3059 51.466 53.5473 52.0521 52.1058 53.1419C50.6649 54.2309 49.6215 55.7636 49.1357 57.5037L45.5459 70.4423V70.443C45.1101 72.0049 45.4334 73.6801 46.4177 74.9692C47.402 76.2577 48.9341 77.0092 50.5551 76.9999H83.2293C84.8447 76.9992 86.3675 76.2435 87.3446 74.9565C88.3218 73.6695 88.6409 71.9992 88.2064 70.443L84.6015 57.5037ZM54.1299 60.9018C54.4746 59.6646 55.2146 58.5734 56.2375 57.7958C57.2603 57.0181 58.5088 56.5964 59.7937 56.5942H61.9319C62.9269 56.5892 63.8671 57.0486 64.4746 57.8371C65.0821 58.6248 65.2873 59.6512 65.0294 60.612C64.7716 61.5728 64.0807 62.3591 63.1598 62.7366L58.3735 64.6989V64.6996C57.637 64.9873 56.8201 64.9916 56.0808 64.711C55.3415 64.4303 54.7326 63.8855 54.3722 63.1818C54.0118 62.4781 53.9256 61.6661 54.13 60.9019L54.1299 60.9018Z" fill="white"/>
<path d="M26.849 28.786L23.2592 41.7246V41.7254C22.8262 43.2787 23.1431 44.9461 24.1167 46.2325C25.0897 47.5188 26.6082 48.2766 28.2207 48.2823H60.895C62.5104 48.2816 64.0331 47.5259 65.0103 46.2389C65.9875 44.9518 66.3066 43.2816 65.8721 41.7254L62.2668 28.786C61.781 27.046 60.7376 25.5133 59.296 24.4242C57.8552 23.3345 56.0959 22.7483 54.2897 22.7554H34.7781C32.9797 22.759 31.2319 23.3502 29.8002 24.4385C28.3686 25.5275 27.3323 27.0539 26.8486 28.786L26.849 28.786ZM31.7948 32.1842C32.1395 30.947 32.8796 29.8558 33.9024 29.0781C34.9253 28.3005 36.1737 27.8787 37.4587 27.8766H39.5969C40.5919 27.8716 41.532 28.331 42.1395 29.1194C42.7471 29.9072 42.9522 30.9335 42.6944 31.8944C42.4365 32.8552 41.7457 33.6415 40.8247 34.0189L36.0385 35.9812V35.9819C35.302 36.2697 34.4851 36.274 33.7458 35.9933C33.0065 35.7127 32.3975 35.1679 32.0371 34.4642C31.6767 33.7604 31.5905 32.9485 31.795 32.1842L31.7948 32.1842Z" fill="#10BD87"/>
<path d="M36.2602 14.5549C35.6349 15.1809 35.6349 16.1952 36.2602 16.8205C36.8863 17.4466 37.9005 17.4466 38.5259 16.8205L41.2225 14.7786C42.1391 14.0799 43.2602 13.7017 44.4133 13.7017C45.5657 13.7017 46.6868 14.0799 47.6042 14.7786L50.3007 16.8847H50.3C50.9396 17.3975 51.8641 17.3427 52.4382 16.7572C53.0237 16.1832 53.0792 15.2587 52.5657 14.619L50.4596 11.9225C49.7609 11.0058 49.3827 9.88469 49.3827 8.73161C49.3827 7.57921 49.7609 6.45809 50.4596 5.54077L52.5657 2.84423V2.84494C53.2352 2.24096 53.2894 1.20891 52.6854 0.539323C52.0821 -0.130189 51.0501 -0.183595 50.3798 0.419667L47.6832 2.52581H47.6839C46.7666 3.22451 45.6454 3.60271 44.4931 3.60271C43.34 3.60271 42.2188 3.22451 41.3022 2.52581L38.5258 0.419667C37.8862 -0.0931483 36.9618 -0.0383024 36.3883 0.547158C35.8022 1.12122 35.7473 2.04573 36.2601 2.68539L38.3663 5.38193V5.38122C39.065 6.29858 39.4432 7.41971 39.4432 8.57207C39.4432 9.72518 39.065 10.8463 38.3663 11.7629L36.2602 14.5549Z" fill="white"/>
<path d="M6.37217 30.495C5.99468 30.9836 6.03956 31.6773 6.47616 32.1139C6.91276 32.5505 7.60648 32.5954 8.09508 32.2179L10.137 30.6225C10.8372 30.0776 11.699 29.782 12.5865 29.782C13.4733 29.782 14.3351 30.0776 15.0353 30.6225L17.0772 32.2179C17.5601 32.5833 18.2375 32.5427 18.6727 32.1224C19.0936 31.6866 19.1342 31.0092 18.7688 30.527L17.1734 28.4851V28.4843C16.6285 27.7842 16.3329 26.9224 16.3329 26.0356C16.3329 25.1488 16.6285 24.2871 17.1734 23.5869L18.7688 21.5449V21.5442C19.1463 21.0556 19.1014 20.3619 18.6648 19.9253C18.2282 19.4887 17.5345 19.4438 17.0459 19.8213L15.0039 21.4167H15.0032C14.3031 21.9616 13.4413 22.2571 12.5545 22.2571C11.6677 22.2571 10.8059 21.9616 10.1057 21.4167L8.06376 19.8213H8.06305C7.58087 19.4559 6.90352 19.4965 6.46763 19.9174C6.0474 20.3526 6.00681 21.0299 6.37218 21.5128L7.96761 23.5548C8.51248 24.2549 8.80806 25.1167 8.80806 26.0035C8.80806 26.891 8.51248 27.7528 7.96761 28.453L6.37217 30.495Z" fill="#10BD87"/>
<path d="M70.2388 30.495C69.8614 30.9836 69.9062 31.6773 70.3428 32.1139C70.7794 32.5505 71.4732 32.5954 71.9618 32.2179L74.0037 30.6225C74.7038 30.0776 75.5657 29.782 76.4532 29.782C77.3399 29.782 78.2017 30.0776 78.9019 30.6225L80.9439 32.2179C81.4268 32.5833 82.1041 32.5427 82.5393 32.1224C82.9603 31.6866 83.0008 31.0092 82.6355 30.527L81.04 28.4851V28.4843C80.4952 27.7842 80.1996 26.9224 80.1996 26.0356C80.1996 25.1488 80.4952 24.2871 81.04 23.5869L82.6355 21.5449V21.5442C83.013 21.0556 82.9681 20.3619 82.5315 19.9253C82.0949 19.4887 81.4012 19.4438 80.9126 19.8213L78.8706 21.4167H78.8699C78.1698 21.9616 77.3079 22.2571 76.4211 22.2571C75.5343 22.2571 74.6726 21.9616 73.9724 21.4167L71.9304 19.8213H71.9297C71.4475 19.4559 70.7702 19.4965 70.3343 19.9174C69.9141 20.3526 69.8735 21.0299 70.2389 21.5128L71.8343 23.5548C72.3791 24.2549 72.6747 25.1167 72.6747 26.0035C72.6747 26.891 72.3791 27.7528 71.8343 28.453L70.2388 30.495Z" fill="#10BD87"/>
</svg>
