<svg width="75" height="81" viewBox="0 0 75 81" fill="none" xmlns="http://www.w3.org/2000/svg">
<path d="M63.6032 0H22.7486C19.9888 0 17.3417 1.09637 15.3906 3.04824C13.4388 4.99935 12.3424 7.64641 12.3424 10.4062V26.5936C12.3424 29.3534 13.4387 32.0005 15.3906 33.9516C17.3417 35.9034 19.9888 36.9998 22.7486 36.9998H63.6032C66.3631 36.9998 69.0101 35.9034 70.9612 33.9516C72.9131 32.0005 74.0095 29.3534 74.0095 26.5936V10.4062C74.0095 7.64641 72.9131 4.99935 70.9612 3.04824C69.0101 1.09642 66.3631 0 63.6032 0ZM67.8427 24.2348C67.8427 24.4729 67.6493 24.6663 67.4112 24.6663C65.8902 24.6663 64.4311 25.2706 63.356 26.3463C62.2803 27.4213 61.676 28.8804 61.676 30.4014C61.676 30.6396 61.4826 30.833 61.2445 30.833H25.1082C24.8701 30.833 24.6767 30.6396 24.6767 30.4014C24.6767 28.8804 24.0724 27.4214 22.9967 26.3463C21.9217 25.2706 20.4626 24.6663 18.9415 24.6663C18.7034 24.6663 18.51 24.4729 18.51 24.2348V12.7645C18.51 12.5264 18.7034 12.333 18.9415 12.333C20.4625 12.333 21.9216 11.7287 22.9967 10.653C24.0724 9.57797 24.6767 8.11888 24.6767 6.59784C24.6767 6.35971 24.8701 6.16632 25.1082 6.16632H61.2445C61.4826 6.16632 61.676 6.35973 61.676 6.59784C61.676 8.11885 62.2803 9.5779 63.356 10.653C64.4311 11.7287 65.8901 12.333 67.4112 12.333C67.6493 12.333 67.8427 12.5264 67.8427 12.7645V24.2348Z" fill="#10BD87"/>
<path d="M52.4259 18.4998C52.4259 23.6086 48.2848 27.7497 43.176 27.7497C38.0672 27.7497 33.9261 23.6086 33.9261 18.4998C33.9261 13.391 38.0672 9.24988 43.176 9.24988C48.2848 9.24988 52.4259 13.391 52.4259 18.4998Z" fill="white"/>
<path d="M3.97221 80.1659H12.3433C13.2359 80.1514 14.1059 79.8789 14.8471 79.3813C15.5883 78.883 16.1699 78.181 16.5209 77.3599C17.3688 75.494 19.02 74.1148 21.0075 73.6137L37.1329 69.5744C44.0689 67.8401 50.6416 64.8855 56.5418 60.8491L72.467 49.8875C73.4181 49.2625 73.9962 48.2047 74.0086 47.0663V46.5887C74.0086 45.6809 73.648 44.8103 73.0065 44.1682C72.3644 43.5268 71.4938 43.1662 70.5861 43.1662L66.9013 43.6135L52.9032 47.1132V47.1125C50.5983 47.745 48.5757 49.1422 47.1688 51.0746C46.9961 51.301 46.7752 51.4855 46.5212 51.6142L44.3939 52.5392C42.0064 53.5812 39.5364 54.4216 37.0091 55.052L24.4296 58.1353C23.7613 58.317 23.0483 58.2302 22.4434 57.893C21.8385 57.5558 21.389 56.9955 21.1922 56.3321C21.0332 55.6776 21.1378 54.9873 21.484 54.4106C21.8302 53.8331 22.3897 53.4161 23.0422 53.2488L39.8152 49.0402V49.0395C40.3809 48.9211 40.9026 48.6458 41.3197 48.2453C41.7367 47.8447 42.0327 47.3347 42.1738 46.7738C42.363 45.9032 42.1524 44.994 41.6005 44.2956C41.0485 43.597 40.2123 43.1827 39.3217 43.1662H23.4116C21.9154 43.1641 20.424 43.3451 18.9719 43.7057L16.5974 44.3073C12.7039 45.2818 9.23743 47.5075 6.7308 50.6432L5.18915 52.6473C1.86006 56.7629 0.0328089 61.8911 0.009552 67.185V76.2038C0.009552 77.2547 0.427313 78.2623 1.16991 79.0055C1.91322 79.7481 2.92079 80.1659 3.97167 80.1659H3.97221Z" fill="white"/>
</svg>
