<svg width="41" height="40" viewBox="0 0 41 40" fill="none" xmlns="http://www.w3.org/2000/svg">
<path d="M20.1597 0H20.9764C25.436 0 29.74 1.69827 33.8884 5.0948C38.2961 9.56733 40.5 14.2602 40.5 19.1736V21.0792C40.5 23.9313 39.3981 27.2824 37.1942 31.1327C34.4718 35.0219 30.7641 37.7054 26.0712 39.1833C23.8933 39.7278 22.0784 40 20.6264 40H20.5097C15.0779 40 10.2229 37.8739 5.94482 33.6218C2.31494 29.4733 0.5 24.936 0.5 20.0097C0.5 14.7464 2.55477 9.93032 6.66432 5.5615C10.9424 1.85383 15.4409 0 20.1597 0ZM21.3459 16.5678V17.5207C21.3459 17.6762 21.2616 17.754 21.0931 17.754C18.617 17.417 16.4909 16.5484 14.7149 15.1483L13.062 13.6121H12.9259C12.9259 13.7417 12.7703 14.0593 12.4592 14.5649V15.9844C12.5629 16.7882 13.1138 17.6957 14.1121 18.7069V18.8235C13.5676 18.8235 13.0166 18.668 12.4592 18.3568V18.4735C12.4592 19.9903 13.4444 21.2931 15.4149 22.3821L15.1816 22.4988H14.5982L13.9954 22.3821V22.6155C14.9029 24.2748 16.0502 25.1045 17.4373 25.1045V25.4545C15.8816 26.4009 14.3389 26.8741 12.8092 26.8741H12.1091V27.1074C14.3389 28.1316 16.2705 28.6437 17.904 28.6437C21.3264 28.6437 24.2433 27.263 26.6546 24.5017C28.3918 22.0904 29.2603 19.8023 29.2603 17.6373V16.8206C30.5178 15.615 31.1531 14.9409 31.166 14.7982V14.6816C30.7123 14.9149 30.0771 15.1159 29.2603 15.2844L29.1437 15.0316C29.8826 14.6038 30.4336 14.0139 30.7965 13.262V13.1454H30.6799C29.5131 13.7028 28.8066 13.9815 28.5603 13.9815H28.2103C27.3417 13.2685 26.5509 12.8731 25.8379 12.7953H24.885C23.5627 12.7953 22.4997 13.5408 21.6959 15.0316C21.4626 15.4205 21.3459 15.9326 21.3459 16.5678Z" fill="#1E1E1E"/>
</svg>
