<svg width="178" height="36" viewBox="0 0 178 36" fill="none" xmlns="http://www.w3.org/2000/svg">
<path d="M0.100893 32.9624C0.40749 33.8584 1.05613 34.5967 1.9052 35.0161C2.3018 35.2094 2.73728 35.3097 3.17849 35.3095H4.53685L29.3102 35.5207L31.3169 28.5616L14.0425 28.4325C11.4783 28.4032 10.1552 25.5662 11.8832 23.803L19.5757 15.9461C21.336 14.1359 19.9072 11.2344 17.2785 11.3195L5.08842 11.7155C4.40617 11.7191 3.74704 11.9632 3.22703 12.4048C2.70702 12.8465 2.35946 13.4574 2.24553 14.1301L0.139035 29.5063L0.0334164 30.4892C0.0128795 30.7503 -0.00472368 31.1111 0.001144 31.5336C0.001144 32.2524 -0.0135263 32.6162 0.100893 32.9624Z" fill="white"/>
<path d="M40.5878 3.03731C40.2812 2.14132 39.6326 1.40302 38.7835 0.983624C38.3869 0.790293 37.9515 0.689955 37.5102 0.690241H36.1519L11.3786 0.479004L9.38354 7.43807L26.658 7.56716C29.2221 7.5965 30.5453 10.4335 28.8173 12.1967L21.1248 20.0536C19.3645 21.8637 20.7932 24.7653 23.422 24.6802L35.615 24.2871C36.2972 24.2836 36.9564 24.0395 37.4764 23.5978C37.9964 23.1562 38.3439 22.5452 38.4579 21.8726L40.5644 6.49631L40.67 5.51347C40.6905 5.25236 40.7081 4.8915 40.7023 4.46903C40.6964 3.7473 40.714 3.3835 40.5878 3.03731Z" fill="white"/>
<path d="M54.6058 22.4357H65.4228V27.7489H47.5851V23.1956L57.833 9.15132H47.9636V3.83521H64.8566V8.39145L54.6058 22.4357Z" fill="white"/>
<path d="M83.947 18.8622C83.9472 19.0584 83.9344 19.2544 83.9089 19.449C83.8825 19.6397 83.8561 19.8216 83.8326 20.0005C83.8092 20.1795 83.7828 20.3937 83.7564 20.5697H71.801C72.0359 21.2822 72.4634 21.9158 73.0361 22.4004C73.6921 22.9708 74.5409 23.2698 75.4096 23.2365C75.8267 23.2455 76.2427 23.188 76.6418 23.0664C76.933 22.9771 77.2082 22.8424 77.4574 22.6674C77.6999 22.5255 77.9074 22.331 78.0647 22.0982L83.3779 22.4767C82.8792 23.9983 81.9246 25.3299 80.6436 26.2907C79.9245 26.8275 79.1229 27.2437 78.2701 27.5229C77.2806 27.8398 76.2459 27.9924 75.2072 27.9747C74.0503 27.9819 72.9052 27.7429 71.8479 27.2735C70.8076 26.8127 69.8662 26.1552 69.0754 25.3372C68.2695 24.5018 67.6258 23.5238 67.1772 22.4532C66.2411 20.1538 66.2411 17.5794 67.1772 15.28C67.6273 14.2059 68.2775 13.2273 69.093 12.396C69.902 11.5741 70.8624 10.9166 71.9212 10.4597C74.0961 9.54454 76.5441 9.52451 78.7336 10.4039C79.7553 10.8236 80.6792 11.4498 81.4474 12.2435C82.2404 13.0741 82.8598 14.0545 83.2693 15.1274C83.7281 16.3186 83.958 17.5857 83.947 18.8622ZM79.0211 17.3425C78.8117 16.5726 78.3825 15.8803 77.786 15.3504C77.1186 14.7987 76.2798 14.4969 75.414 14.4969C74.5481 14.4969 73.7094 14.7987 73.042 15.3504C72.4455 15.8803 72.0163 16.5726 71.8068 17.3425H79.0211Z" fill="white"/>
<path d="M102.36 17.1197V27.3676H97.2373V18.0673C97.2373 16.929 96.944 16.0429 96.3572 15.4092C95.7323 14.8015 94.895 14.4615 94.0233 14.4615C93.1516 14.4615 92.3143 14.8015 91.6894 15.4092C91.1027 16.041 90.8093 16.927 90.8093 18.0673V27.3676H85.6575V9.91122H87.585C88.1433 9.90905 88.6902 10.0693 89.159 10.3725C89.6279 10.6757 89.9984 11.1087 90.2255 11.6187C90.6549 11.2485 91.1266 10.9305 91.6308 10.6711C92.1575 10.4152 92.7028 10.1994 93.262 10.0256C93.9389 9.82031 94.6436 9.72134 95.3509 9.73226C96.3235 9.72103 97.2893 9.89528 98.1967 10.2457C99.034 10.5689 99.7916 11.0693 100.418 11.7126C101.055 12.3873 101.546 13.1864 101.861 14.0597C102.209 15.0416 102.378 16.078 102.36 17.1197Z" fill="white"/>
<path d="M110.947 9.7381V9.9288H114.553V14.6728H110.947V27.5817H105.825V14.6728H103.548V9.92586H105.825V8.97824C105.825 6.87761 106.368 5.27671 107.456 4.17555C108.543 3.07438 110.088 2.52379 112.088 2.52379C112.418 2.52204 112.747 2.54066 113.074 2.57954C113.377 2.6167 113.643 2.66071 113.872 2.71156C114.101 2.76242 114.329 2.82598 114.556 2.90226V7.45851L114.177 7.38223L113.761 7.30595C113.585 7.27895 113.407 7.26621 113.23 7.26781C112.927 7.25863 112.625 7.31287 112.344 7.42705C112.063 7.54123 111.809 7.71283 111.598 7.93086C111.375 8.17352 111.202 8.4584 111.09 8.76875C110.979 9.0791 110.93 9.40866 110.947 9.7381Z" fill="white"/>
<path d="M116.765 9.90233H123.278V27.5523H118.156V15.0248H116.765V9.90233ZM118.059 8.84321V3.5271H123.372V8.84028L118.059 8.84321Z" fill="white"/>
<path d="M143.029 18.6717C143.042 19.8927 142.817 21.1045 142.366 22.2393C141.95 23.2838 141.346 24.2426 140.582 25.0675C139.849 25.8552 138.965 26.4877 137.982 26.9275C137.004 27.368 135.943 27.5941 134.87 27.5906C134.261 27.5968 133.654 27.5198 133.065 27.3617C132.586 27.2353 132.122 27.0573 131.681 26.8307C131.261 26.6251 130.867 26.37 130.507 26.0709V33.4729H125.376V9.94063H127.303C127.862 9.93846 128.409 10.0987 128.877 10.4019C129.346 10.7051 129.717 11.1381 129.944 11.6481C130.346 11.2783 130.792 10.96 131.273 10.7005C131.773 10.4438 132.293 10.228 132.828 10.055C133.492 9.84755 134.186 9.74849 134.881 9.76166C135.953 9.75578 137.013 9.97885 137.991 10.4159C138.974 10.8555 139.858 11.4881 140.591 12.2759C141.354 13.1009 141.959 14.0597 142.374 15.1042C142.822 16.2395 143.045 17.4513 143.029 18.6717ZM137.903 18.6717C137.951 17.5594 137.555 16.4736 136.803 15.6528C136.456 15.287 136.038 14.9956 135.575 14.7965C135.112 14.5974 134.613 14.4947 134.108 14.4947C133.604 14.4947 133.105 14.5974 132.642 14.7965C132.179 14.9956 131.761 15.287 131.414 15.6528C130.704 16.4982 130.315 17.5666 130.315 18.6702C130.315 19.7739 130.704 20.8423 131.414 21.6877C131.761 22.0536 132.179 22.3449 132.642 22.544C133.105 22.7431 133.604 22.8458 134.108 22.8458C134.613 22.8458 135.112 22.7431 135.575 22.544C136.038 22.3449 136.456 22.0536 136.803 21.6877C137.555 20.8678 137.951 19.7831 137.903 18.6717Z" fill="white"/>
<path d="M159.523 16.9642V27.5935H157.595C157.037 27.5957 156.49 27.4354 156.021 27.1322C155.552 26.829 155.182 26.396 154.955 25.886C154.049 26.614 153.012 27.1618 151.901 27.4996C151.23 27.6997 150.532 27.7986 149.832 27.793C147.935 27.793 146.48 27.3314 145.467 26.4082C144.971 25.9625 144.578 25.414 144.315 24.8009C144.053 24.1878 143.927 23.5249 143.947 22.8583C143.938 22.0386 144.113 21.2274 144.46 20.4848C144.848 19.7132 145.447 19.068 146.188 18.6247C147.182 18.0361 148.272 17.626 149.407 17.4131C151.049 17.0929 152.721 16.9464 154.394 16.9759C154.394 16.1153 154.179 15.4572 153.749 15.0015C153.541 14.7782 153.288 14.6018 153.007 14.4839C152.726 14.3661 152.423 14.3095 152.118 14.3179C151.711 14.3007 151.308 14.4027 150.959 14.6113C150.7 14.774 150.464 14.9714 150.258 15.198C150.059 15.443 149.917 15.7284 149.841 16.0342L144.716 15.6557C144.857 14.8279 145.126 14.0271 145.514 13.2822C145.886 12.5696 146.396 11.9375 147.013 11.4222C147.681 10.8769 148.448 10.4646 149.272 10.2076C150.255 9.90222 151.279 9.75468 152.308 9.77043C153.295 9.76102 154.274 9.94129 155.192 10.3015C156.054 10.6368 156.836 11.1474 157.489 11.8009C158.143 12.4544 158.653 13.2366 158.989 14.0978C159.348 15.0106 159.529 15.9834 159.523 16.9642ZM154.397 20.0007C153.502 19.9873 152.608 20.0442 151.722 20.1709C151.157 20.246 150.607 20.4062 150.09 20.6462C149.754 20.7959 149.475 21.0486 149.292 21.3679C149.152 21.6504 149.081 21.962 149.084 22.2774C149.081 22.5079 149.129 22.7364 149.224 22.9463C149.319 23.1563 149.46 23.3426 149.636 23.492C150.068 23.8433 150.617 24.0192 151.173 23.9849C151.603 24.0086 152.033 23.9414 152.436 23.7876C152.838 23.6339 153.203 23.397 153.508 23.0924C153.812 22.7879 154.049 22.4225 154.203 22.0202C154.357 21.6179 154.424 21.1877 154.4 20.7577L154.397 20.0007Z" fill="white"/>
<path d="M178 9.74976L170.976 27.212C170.09 29.3889 169.135 30.9771 168.11 31.9765C167.085 32.976 165.763 33.4757 164.144 33.4757C163.941 33.4757 163.745 33.4757 163.557 33.4581C163.369 33.4405 163.184 33.4258 163.005 33.3994C162.813 33.3759 162.623 33.3377 162.436 33.285V28.9194C163.498 28.9194 164.295 28.6984 164.827 28.2564C165.385 27.7737 165.805 27.1509 166.042 26.4521L159.408 9.74976H164.912L168.709 20.5668L172.505 9.74976H178Z" fill="white"/>
</svg>
